<svg width="42" height="42" viewBox="0 0 42 42" fill="none" xmlns="http://www.w3.org/2000/svg">
<rect width="42" height="42" rx="12" fill="#FAE7E7"/>
<path fill-rule="evenodd" clip-rule="evenodd" d="M21.9476 10.1975C21.8103 10.0134 21.604 9.89307 21.3762 9.86416C21.1483 9.83524 20.9185 9.90024 20.7396 10.0442C18.6309 11.7409 17.1603 14.2024 16.7496 17.0083C16.0094 16.4717 15.3592 15.8178 14.8265 15.074C14.68 14.8694 14.45 14.7407 14.1989 14.7228C13.9479 14.705 13.7019 14.7999 13.528 14.9818C11.7855 16.8032 10.7139 19.2751 10.7139 21.9956C10.7139 27.5999 15.2571 32.1431 20.8614 32.1431C26.4657 32.1431 31.0089 27.5999 31.0089 21.9956C31.0089 17.8679 28.5445 14.3177 25.0104 12.7325C23.7597 12.1219 22.727 11.2428 21.9476 10.1975Z" fill="#FF4646"/>
<path fill-rule="evenodd" clip-rule="evenodd" d="M21.4023 17.6228C21.3339 17.5311 21.2311 17.4711 21.1176 17.4567C21.0041 17.4423 20.8896 17.4747 20.8004 17.5464C19.7499 18.3917 19.0172 19.618 18.8127 21.0159C18.4439 20.7486 18.1199 20.4228 17.8546 20.0523C17.7816 19.9503 17.667 19.8862 17.5419 19.8773C17.4168 19.8684 17.2943 19.9157 17.2076 20.0063C16.3396 20.9137 15.8057 22.1452 15.8057 23.5006C15.8057 26.2926 18.0691 28.5561 20.8611 28.5561C23.6532 28.5561 25.9166 26.2926 25.9166 23.5006C25.9166 21.4442 24.6889 19.6755 22.9282 18.8857C22.3051 18.5815 21.7906 18.1436 21.4023 17.6228Z" fill="#FFC28D"/>
</svg>
