<svg width="42" height="42" viewBox="0 0 42 42" fill="none" xmlns="http://www.w3.org/2000/svg">
<rect width="42" height="42" rx="12" fill="#FFE5E5"/>
<path fill-rule="evenodd" clip-rule="evenodd" d="M18.4453 23.1683C18.9048 22.862 19.5257 22.9862 19.8321 23.4457C20.5026 24.4516 21.0242 25.7014 21.4058 26.8304C21.8585 25.7274 22.6125 24.9735 23.2619 24.3243C23.2723 24.3139 23.2826 24.3036 23.2929 24.2933C23.6834 23.9028 24.3166 23.9028 24.7071 24.2933C25.0976 24.6838 25.0976 25.317 24.7071 25.7075C23.9559 26.4587 23.3614 27.0679 23.1186 28.0004H24.3755C24.6178 27.5264 24.9325 26.9709 25.3197 26.445C25.8671 25.7015 26.6449 24.898 27.6838 24.5517C28.2077 24.3771 28.774 24.6602 28.9487 25.1842C29.1233 25.7081 28.8402 26.2744 28.3162 26.4491C27.8551 26.6028 27.3829 27.016 26.9303 27.6308C26.8415 27.7514 26.7567 27.8752 26.6759 28.0004H29C29.5523 28.0004 30 28.4481 30 29.0004C30 29.5527 29.5523 30.0004 29 30.0004H25.0211C25.0066 30.0007 24.9921 30.0007 24.9776 30.0004H21.0209C21.0064 30.0007 20.992 30.0007 20.9776 30.0004H18.0173C18.0064 30.0006 17.9955 30.0006 17.9846 30.0004H13C12.4477 30.0004 12 29.5527 12 29.0004C12 28.4481 12.4477 28.0004 13 28.0004H16.2077C15.6544 27.2109 14.9064 26.44 13.6286 25.9289C13.1158 25.7238 12.8664 25.1418 13.0715 24.629C13.2766 24.1162 13.8586 23.8668 14.3714 24.0719C16.8434 25.0607 17.9344 26.8987 18.5709 28.0004H19.6823C19.3248 26.8462 18.815 25.5257 18.1679 24.5551C17.8616 24.0956 17.9858 23.4747 18.4453 23.1683Z" fill="#FF4646"/>
<path d="M19.3112 17.8989L16.2008 19.0331C14.9743 19.4857 13.6049 18.9141 13.0719 17.7268C12.8971 17.3376 13.0509 16.8802 13.426 16.6735L20.3778 12.843C21.381 12.2903 22.5092 12.0002 23.6563 12.0002H27.1222C27.6141 12.0002 28.034 12.3537 28.1149 12.8358L28.9863 18.0313C29.0555 18.4442 28.8586 18.8563 28.4929 19.0639L26.9893 19.9177C25.8083 20.5883 24.423 20.8117 23.0892 20.5466L20.4861 20.0293C20.019 19.9365 19.7542 19.4423 19.9374 19.0054L20.496 17.6733C20.7304 17.1144 21.28 16.7502 21.8894 16.7502H23.8214C24.0975 16.7502 24.3214 16.5264 24.3214 16.2502C24.3214 15.9741 24.0975 15.7502 23.8214 15.7502H21.8894C20.8737 15.7502 19.9577 16.3571 19.567 17.2887L19.3112 17.8989Z" fill="#FF4646"/>
</svg>
