<svg width="42" height="42" viewBox="0 0 42 42" fill="none" xmlns="http://www.w3.org/2000/svg">
<rect width="42" height="42" rx="12" fill="#E5FAFF"/>
<path fill-rule="evenodd" clip-rule="evenodd" d="M17 12.0002C16.1716 12.0002 15.5 12.6718 15.5 13.5002V28.5002C15.5 29.3286 16.1716 30.0002 17 30.0002H21C21.8284 30.0002 22.5 29.3286 22.5 28.5002V13.5002C22.5 12.6718 21.8284 12.0002 21 12.0002H17ZM17 16.5002C17 16.2241 17.2239 16.0002 17.5 16.0002H20.5C20.7761 16.0002 21 16.2241 21 16.5002V17.5002C21 17.7764 20.7761 18.0002 20.5 18.0002H17.5C17.2239 18.0002 17 17.7764 17 17.5002V16.5002ZM17.5 24.0002C17.2239 24.0002 17 24.2241 17 24.5002V25.5002C17 25.7763 17.2239 26.0002 17.5 26.0002H20.5C20.7761 26.0002 21 25.7763 21 25.5002V24.5002C21 24.2241 20.7761 24.0002 20.5 24.0002H17.5Z" fill="#007A96"/>
<path d="M12.5 14.0002C11.6716 14.0002 11 14.6718 11 15.5002V28.5002C11 29.3286 11.6716 30.0002 12.5 30.0002H13C13.8284 30.0002 14.5 29.3286 14.5 28.5002V15.5002C14.5 14.6718 13.8284 14.0002 13 14.0002H12.5Z" fill="#007A96"/>
<path fill-rule="evenodd" clip-rule="evenodd" d="M22.664 17.4422C22.4356 16.6458 22.8961 15.8152 23.6924 15.5868L25.6149 15.0355C26.4113 14.8072 27.2419 15.2676 27.4703 16.064L30.7779 27.5991C31.0063 28.3955 30.5458 29.2261 29.7495 29.4545L27.827 30.0058C27.0306 30.2341 26.2 29.7737 25.9716 28.9773L22.664 17.4422Z" fill="#007A96"/>
</svg>
