<svg width="42" height="42" viewBox="0 0 42 42" fill="none" xmlns="http://www.w3.org/2000/svg">
<rect width="42" height="42" rx="12" fill="#FFF5E5"/>
<path d="M20.4649 17.7531C19.7372 17.8817 19.0825 18.3169 18.5863 18.7992C17.8303 19.5339 17.2175 20.5749 16.9255 21.6647C16.6334 22.7546 16.6437 23.9625 16.931 24.9768C17.2063 25.9485 17.8238 27.0022 18.9577 27.306C20.0916 27.6098 21.1532 27.0061 21.8775 26.3022C22.6335 25.5675 23.2463 24.5265 23.5383 23.4367C23.8303 22.3468 23.8201 21.1388 23.5328 20.1246C23.341 19.4478 22.9833 18.7313 22.4007 18.2561L24.2756 11.2588C24.4185 10.7254 24.102 10.177 23.5685 10.0341C23.035 9.89114 22.4867 10.2077 22.3438 10.7412L20.4649 17.7531Z" fill="#9E703E"/>
<path d="M25.5016 22.4707C25.5332 21.9193 26.0058 21.4979 26.5572 21.5295C27.6627 21.5929 28.7808 21.765 29.6567 22.1159C30.4751 22.4437 31.4768 23.1055 31.4851 24.331C31.4912 25.2222 31.0125 25.8901 30.4478 26.345C29.8976 26.7882 29.1938 27.0954 28.5093 27.315C27.1313 27.7573 25.5357 27.9363 24.5494 27.985C23.9978 28.0123 23.5285 27.5872 23.5012 27.0356C23.474 26.484 23.899 26.0147 24.4506 25.9874C25.3473 25.9431 26.751 25.7789 27.8981 25.4107C28.4763 25.2251 28.9165 25.0103 29.1931 24.7875C29.4551 24.5764 29.4858 24.4344 29.4852 24.3446L29.485 24.3401C29.4849 24.3392 29.4849 24.3387 29.4848 24.3384C29.4836 24.3357 29.474 24.3153 29.44 24.2803C29.3643 24.2023 29.2043 24.0892 28.9129 23.9724C28.3284 23.7383 27.4578 23.5844 26.4428 23.5263C25.8914 23.4946 25.47 23.022 25.5016 22.4707Z" fill="#9E703E"/>
<path d="M14.9434 22.9645C15.1266 23.4855 14.8527 24.0564 14.3317 24.2395C12.9343 24.7309 12.5 25.2986 12.5 25.9167C12.5 26.4645 12.8497 27.0374 13.8952 27.5898C14.9305 28.1367 16.4263 28.5292 18.1497 28.7603C21.5978 29.2226 25.585 28.9937 27.7396 28.4126C28.2728 28.2687 28.8217 28.5844 28.9655 29.1176C29.1093 29.6509 28.7936 30.1997 28.2604 30.3436C25.7935 31.009 21.5305 31.2315 17.8839 30.7425C16.0601 30.498 14.2974 30.0642 12.961 29.3582C11.635 28.6576 10.4999 27.551 10.5 25.9166C10.5001 23.9304 12.1065 22.9019 13.6683 22.3528C14.1893 22.1696 14.7602 22.4434 14.9434 22.9645Z" fill="#9E703E"/>
</svg>
