<svg width="42" height="42" viewBox="0 0 42 42" fill="none" xmlns="http://www.w3.org/2000/svg">
<g clip-path="url(#clip0_2027_6729)">
<rect width="42" height="42" rx="12" fill="#FF6650"/>
<path d="M7 14.9936V42.75H35V14.9936C35 14.2554 34.1088 13.8842 33.5848 14.4042C33.2611 14.7254 32.7389 14.7254 32.4152 14.4042L32 13.9922C31.4465 13.443 30.5535 13.443 30 13.9922C29.4465 14.5415 28.5535 14.5415 28 13.9922C27.4465 13.443 26.5535 13.443 26 13.9922C25.4465 14.5415 24.5535 14.5415 24 13.9922C23.4465 13.443 22.5535 13.443 22 13.9922C21.4465 14.5415 20.5535 14.5415 20 13.9922C19.4465 13.443 18.5535 13.443 18 13.9922C17.4465 14.5415 16.5535 14.5415 16 13.9922C15.4465 13.443 14.5535 13.443 14 13.9922C13.4465 14.5415 12.5535 14.5415 12 13.9922C11.4465 13.443 10.5535 13.443 10 13.9922L9.58483 14.4042C9.2611 14.7254 8.7389 14.7254 8.41517 14.4042C7.89116 13.8842 7 14.2554 7 14.9936Z" fill="white"/>
<rect x="9.33301" y="24.1128" width="17.9667" height="2.08366" rx="1.04183" fill="#E8E8E8"/>
<rect x="9.33301" y="28.0486" width="17.9667" height="2.08366" rx="1.04183" fill="#E8E8E8"/>
<rect x="9.33301" y="31.9844" width="17.9667" height="2.08366" rx="1.04183" fill="#E8E8E8"/>
<rect x="9.33301" y="38.2354" width="23.3333" height="2.08366" rx="1.04183" fill="#E8E8E8"/>
<path d="M9.68359 36.499H32.5503" stroke="#E8E8E8" stroke-width="1.31868" stroke-dasharray="2.64 2.64"/>
<rect x="30.5664" y="24.1128" width="2.1" height="2.08366" rx="1.04183" fill="#E8E8E8"/>
<rect x="30.5664" y="28.0486" width="2.1" height="2.08366" rx="1.04183" fill="#E8E8E8"/>
<rect x="30.5664" y="31.9844" width="2.1" height="2.08366" rx="1.04183" fill="#E8E8E8"/>
</g>
<defs>
<clipPath id="clip0_2027_6729">
<rect width="42" height="42" rx="12" fill="white"/>
</clipPath>
</defs>
</svg>
