<svg width="40" height="40" viewBox="0 0 40 40" fill="none" xmlns="http://www.w3.org/2000/svg">
<path d="M12.8235 12.6801C12.7491 13.35 13.2318 13.9535 13.9018 14.0279C14.5717 14.1023 15.1751 13.6196 15.2495 12.9497L14.0365 12.8149L12.8235 12.6801ZM14.5261 8.40845L13.3131 8.27367L14.5261 8.40845ZM24.5312 8.40845L23.3182 8.54322V8.54323L24.5312 8.40845ZM23.8078 12.9497C23.8822 13.6196 24.4856 14.1023 25.1556 14.0279C25.8255 13.9535 26.3082 13.35 26.2338 12.6801L25.0208 12.8149L23.8078 12.9497ZM23.6679 12.0521L24.2601 10.9849L23.6679 12.0521ZM15.3894 12.0521L14.7972 10.9849L15.3894 12.0521ZM20.7491 15.8661C20.7491 15.192 20.2027 14.6456 19.5287 14.6456C18.8546 14.6456 18.3082 15.192 18.3082 15.8661H19.5287H20.7491ZM19.5287 19.5275H18.3082C18.3082 19.8512 18.4368 20.1616 18.6657 20.3905L19.5287 19.5275ZM20.4964 22.2212C20.973 22.6978 21.7457 22.6978 22.2224 22.2212C22.699 21.7446 22.699 20.9718 22.2224 20.4952L21.3594 21.3582L20.4964 22.2212ZM14.5261 30.6465L13.3131 30.7813L14.5261 30.6465ZM24.5312 30.6465L23.3182 30.5117V30.5117L24.5312 30.6465ZM14.0365 12.8149L15.2495 12.9497L15.7391 8.54323L14.5261 8.40845L13.3131 8.27367L12.8235 12.6801L14.0365 12.8149ZM15.7391 7.32275V8.54323H23.3182V7.32275V6.10228H15.7391V7.32275ZM24.5312 8.40845L23.3182 8.54323L23.8078 12.9497L25.0208 12.8149L26.2338 12.6801L25.7442 8.27367L24.5312 8.40845ZM23.3182 7.32275V8.54323L23.3182 8.54322L24.5312 8.40845L25.7442 8.27367C25.6068 7.0375 24.562 6.10228 23.3182 6.10228V7.32275ZM14.5261 8.40845L15.7391 8.54323L15.7391 8.54323V7.32275V6.10228C14.4954 6.10228 13.4505 7.03749 13.3131 8.27367L14.5261 8.40845ZM28.072 19.5275H26.8515C26.8515 23.5718 23.5729 26.8503 19.5287 26.8503V28.0708V29.2913C24.921 29.2913 29.2924 24.9199 29.2924 19.5275H28.072ZM19.5287 28.0708V26.8503C15.4844 26.8503 12.2058 23.5718 12.2058 19.5275H10.9854H9.76488C9.76488 24.9199 14.1363 29.2913 19.5287 29.2913V28.0708ZM19.5287 10.9842V12.2046C20.818 12.2046 22.026 12.5368 23.0757 13.1193L23.6679 12.0521L24.2601 10.9849C22.8573 10.2065 21.2429 9.7637 19.5287 9.7637V10.9842ZM23.6679 12.0521L23.0757 13.1193C25.3301 14.3702 26.8515 16.772 26.8515 19.5275H28.072H29.2924C29.2924 15.8498 27.2586 12.6488 24.2601 10.9849L23.6679 12.0521ZM10.9854 19.5275H12.2058C12.2058 16.772 13.7272 14.3702 15.9816 13.1193L15.3894 12.0521L14.7972 10.9849C11.7987 12.6488 9.76488 15.8498 9.76488 19.5275H10.9854ZM15.3894 12.0521L15.9816 13.1193C17.0313 12.5368 18.2394 12.2046 19.5287 12.2046V10.9842V9.7637C17.8145 9.7637 16.2 10.2065 14.7972 10.9849L15.3894 12.0521ZM19.5287 15.8661H18.3082V19.5275H19.5287H20.7491V15.8661H19.5287ZM19.5287 19.5275L18.6657 20.3905L20.4964 22.2212L21.3594 21.3582L22.2224 20.4952L20.3917 18.6645L19.5287 19.5275ZM14.0365 26.2401L12.8235 26.3749L13.3131 30.7813L14.5261 30.6465L15.7391 30.5117L15.2495 26.1053L14.0365 26.2401ZM15.7391 31.7322V32.9527H23.3182V31.7322V30.5117H15.7391V31.7322ZM24.5312 30.6465L25.7442 30.7813L26.2338 26.3749L25.0208 26.2401L23.8078 26.1053L23.3182 30.5117L24.5312 30.6465ZM23.3182 31.7322V32.9527C24.562 32.9527 25.6068 32.0175 25.7442 30.7813L24.5312 30.6465L23.3182 30.5117L23.3182 30.5117V31.7322ZM14.5261 30.6465L13.3131 30.7813C13.4505 32.0175 14.4954 32.9527 15.7391 32.9527V31.7322V30.5117H15.7391L14.5261 30.6465Z" fill="#FF5C01"/>
</svg>
